<svg xmlns="http://www.w3.org/2000/svg" width="auto" height="100%" viewBox="0 0 171 45" fill="none">
    <path fill-rule="evenodd" clip-rule="evenodd" d="M19.933 31.328L19.946 31.333L10.066 21.378L9.822 21.571C9.01 22.151 8.364 22.768 7.877 23.425C7.389 24.081 7.145 24.908 7.145 25.806C7.145 26.704 7.479 27.517 8.143 28.237C8.806 28.956 9.709 29.318 10.842 29.318C11.686 29.318 12.481 29.121 13.225 28.737C13.6 28.54 13.97 28.299 14.34 28.018L14.566 27.803L18.935 32.293C17.933 33.182 16.836 33.911 15.654 34.487C14.164 35.206 12.494 35.568 10.648 35.568C8.928 35.568 7.416 35.305 6.103 34.777C4.789 34.25 3.679 33.544 2.771 32.66C1.864 31.779 1.174 30.779 0.704 29.653C0.235 28.531 0 27.374 0 26.186C0 24.099 0.519 22.357 1.557 20.963C2.591 19.569 4.035 18.215 5.881 16.897L5.394 16.366C4.97 15.914 4.55 15.427 4.13 14.896C3.71 14.368 3.327 13.797 2.988 13.189C2.645 12.581 2.361 11.934 2.135 11.241C1.909 10.553 1.796 9.825 1.796 9.052C1.796 7.609 2.076 6.322 2.645 5.201C3.209 4.075 3.959 3.127 4.879 2.359C5.805 1.591 6.847 1.005 8.016 0.603C9.181 0.201 10.364 0 11.564 0C12.991 0 14.3 0.214 15.5 0.648C16.697 1.081 17.735 1.684 18.61 2.453C19.486 3.221 20.177 4.142 20.678 5.218C21.179 6.295 21.431 7.475 21.431 8.757C21.431 9.624 21.296 10.432 21.021 11.187C20.745 11.942 20.389 12.648 19.951 13.305C19.513 13.966 18.994 14.574 18.394 15.137C17.793 15.695 17.184 16.205 16.57 16.652L15.451 17.469L30.743 32.767L26.063 37.503L19.933 31.328ZM14.11 10.419V10.414C14.417 9.856 14.57 9.302 14.57 8.757C14.57 7.926 14.277 7.233 13.695 6.688C13.113 6.143 12.395 5.871 11.555 5.871C10.811 5.871 10.138 6.103 9.538 6.568C8.937 7.032 8.639 7.778 8.639 8.806C8.639 9.476 8.824 10.088 9.199 10.633C9.574 11.178 9.966 11.679 10.391 12.126L11.217 12.992L12.58 12.032C13.293 11.518 13.803 10.982 14.11 10.419ZM29.444 22.057L25.57 25.759L21.177 21.255L25.052 17.554L29.444 22.057ZM55.741 16.454C57.442 14.194 59.92 12.961 62.805 12.961L62.8 12.956C67.662 12.956 70.681 16.294 70.681 21.673V35.527H64.105V22.861C64.105 20.292 63.161 19.198 60.945 19.198C57.727 19.198 57.05 21.776 57.05 23.938V35.532H50.473V22.866C50.473 20.297 49.53 19.202 47.313 19.202C44.059 19.202 43.377 21.78 43.377 23.942L43.418 35.536H36.801V13.421H43.418V16.856H44.795C45.716 13.894 48.424 12.961 49.841 12.961C52.743 12.961 54.4 14.194 55.741 16.454ZM84.9 12.943C91.413 12.947 96.518 18.014 96.518 24.483C96.514 31.055 91.521 36.015 84.9 36.015C78.278 36.015 73.281 30.948 73.281 24.479C73.281 18.009 78.386 12.943 84.9 12.943ZM84.9 29.76H84.904C87.831 29.762 89.874 27.591 89.874 24.483C89.874 22.924 89.337 21.539 88.362 20.574C87.468 19.689 86.24 19.202 84.909 19.202H84.891C83.555 19.202 82.327 19.689 81.433 20.574C80.463 21.539 79.926 22.924 79.926 24.479C79.926 25.998 80.44 27.365 81.375 28.321C82.281 29.249 83.534 29.759 84.9 29.76ZM107.279 16.857C108.218 14.493 109.784 13.157 112 12.961H112.005C117.015 12.514 120.234 16.343 120.234 21.794V35.536H113.657V22.982C113.657 20.297 112.65 19.202 110.186 19.202C107.342 19.202 105.902 20.797 105.902 23.943V35.536H99.326V13.421L105.902 13.425V16.857H107.279ZM134.542 12.961L134.538 12.956C137.914 12.956 140.803 14.14 142.902 16.383C145.154 18.791 146.233 22.182 145.94 25.93L145.903 26.404H129.676C130.15 28.942 131.965 30.439 134.619 30.439C136.239 30.439 137.607 29.84 138.406 28.844H145.434C143.836 33.325 139.846 35.992 134.66 35.992C127.848 35.992 122.906 31.207 122.906 24.514C122.906 17.822 127.799 12.961 134.542 12.961ZM130.096 21.356H138.826C138.099 19.537 136.542 18.51 134.506 18.51C132.47 18.51 130.895 19.537 130.096 21.356ZM159.702 23.201L163.954 13.421H171L157.071 44.356H150.029L155.491 32.213L147.023 13.421H154.073L158.325 23.219V24.827H159.702V23.201Z" fill="white"></path>
</svg>